<svg xmlns="http://www.w3.org/2000/svg" viewBox="0 0 1200 900" role="img" aria-label="化工生产工作台">
  <rect width="1200" height="900" fill="#eef4f0"/>
  <rect x="760" y="0" width="440" height="900" fill="#dbe9e1"/>
  <rect x="0" y="650" width="1200" height="250" fill="#cddad3"/>
  <g fill="none" stroke="#8fa39a" stroke-width="18" stroke-linecap="round">
    <path d="M820 180h220v210"/>
    <path d="M950 390v190"/>
    <path d="M620 520h330"/>
    <path d="M700 260h120"/>
  </g>
  <g fill="#ffffff" stroke="#6f847b" stroke-width="14">
    <rect x="725" y="135" width="130" height="160" rx="8"/>
    <rect x="890" y="330" width="120" height="240" rx="8"/>
    <rect x="500" y="470" width="230" height="130" rx="8"/>
    <rect x="180" y="560" width="360" height="90" rx="8"/>
  </g>
  <g fill="#1f7a55">
    <rect x="745" y="160" width="90" height="20" rx="6"/>
    <rect x="745" y="205" width="90" height="20" rx="6"/>
    <rect x="745" y="250" width="90" height="20" rx="6"/>
    <rect x="520" y="500" width="150" height="18" rx="6"/>
    <rect x="520" y="540" width="110" height="18" rx="6"/>
  </g>
  <g fill="#c83232">
    <circle cx="930" cy="385" r="18"/>
    <circle cx="970" cy="385" r="18"/>
    <circle cx="610" cy="600" r="18"/>
  </g>
  <g fill="#d8a02a">
    <rect x="210" y="585" width="90" height="28" rx="6"/>
    <rect x="325" y="585" width="90" height="28" rx="6"/>
    <rect x="440" y="585" width="70" height="28" rx="6"/>
  </g>
  <g fill="none" stroke="#1d1f21" stroke-width="10" opacity="0.22">
    <path d="M140 700c120-40 210-40 330 0s210 40 330 0 210-40 330 0"/>
    <path d="M140 760c120-40 210-40 330 0s210 40 330 0 210-40 330 0"/>
  </g>
</svg>
